# xmcd
#
# Track frame offsets:
#	150
#	8505
#	26922
#	46980
#	58707
#	84334
#	98130
#	120613
#	133340
#	151367
#	162244
#	173498
#	189734
#
# Disc length: 2745 seconds
# Revision: 0
# Processed by: cddbd v1.5.2PL0 Copyright (c) Steve Scherf et al.
# Submitted via: dBpowerAMP V12.0
#
DISCID=a10ab70d
DTITLE=CIMARRON - Orinoco
DYEAR=2017
DGENRE=Joropo
TTITLE0=Cimarronadas
TTITLE1=Auténtica Llanera
TTITLE2=Cuerdas al Galope
TTITLE3=Tonada de la Palomita
TTITLE4=Zumbajam
TTITLE5=Penitas de mi Corazon
TTITLE6=Parranda Quitapesares
TTITLE7=Ponle Joropo
TTITLE8=Caballo Viejo
TTITLE9=Orinoco Suite:Pajarillo
TTITLE10=Orinoco Suite:Arpa del Horizonte
TTITLE11=Orinoco Suite:Bandora,Cuatro,Y Chipola
TTITLE12=Orinoco Suite:Maraca Y Fiesta
EXTD=
EXTT0=
EXTT1=
EXTT2=
EXTT3=
EXTT4=
EXTT5=
EXTT6=
EXTT7=
EXTT8=
EXTT9=
EXTT10=
EXTT11=
EXTT12=
PLAYORDER=
